<svg width="106" height="22" viewBox="0 0 106 22" fill="none" xmlns="http://www.w3.org/2000/svg">
<path fill-rule="evenodd" clip-rule="evenodd" d="M49.4089 22C54.0317 22 56.6265 18.6528 56.6265 14.0885C56.6265 9.5242 54.0317 6.17704 49.4386 6.17704C47.3808 6.17704 45.5613 7.1812 44.6667 8.67221V0H41.7736V21.7566H44.6667V19.4744C45.5613 20.9958 47.4105 22 49.4089 22ZM49.0808 19.4135C46.2771 19.4135 44.4578 17.2836 44.4578 14.0885C44.4578 10.8935 46.2771 8.76349 49.0808 8.76349C51.8546 8.76349 53.6739 10.8935 53.6739 14.0885C53.6739 17.2836 51.8546 19.4135 49.0808 19.4135ZM31.8789 19.4744C34.0859 19.4744 35.5175 18.5007 35.9352 16.7662H38.8281C38.2913 19.9309 35.5772 22 31.8789 22C27.2261 22 24.333 18.2573 24.333 13.9972C24.333 9.70677 26.9577 6.17704 31.5805 6.17704C36.2333 6.17704 38.7087 9.55462 38.7087 13.4495C38.7087 13.8451 38.679 14.3319 38.6491 14.6058H27.1664C27.4051 17.4965 29.2541 19.4744 31.8789 19.4744ZM35.7859 12.4454C35.6071 10.1024 34.0562 8.55049 31.5805 8.55049C29.2244 8.55049 27.7034 9.88935 27.256 12.4454H35.7859ZM23.4506 6.42047V8.97649H21.2734C18.5295 8.97649 17.6348 11.4716 17.6348 14.8188V21.7566H14.7417V6.42047H17.6348V9.37207C18.3208 7.33333 19.5138 6.42047 21.6313 6.42047H23.4506ZM58.7673 11.4412C59.0057 8.42879 61.6901 6.17704 65.2391 6.17704C69.1164 6.17704 71.6815 8.45921 71.6815 11.8672V21.7566H68.7884V19.2614C68.0726 20.9046 66.1639 22 63.8972 22C60.825 22 58.797 20.1134 58.797 17.3748C58.797 14.4232 61.0934 12.5975 64.6427 12.5975H67.7745C68.4603 12.5975 68.7884 12.2324 68.7884 11.6846C68.7884 9.82848 67.4761 8.55049 65.1498 8.55049C63.062 8.55049 61.5408 9.88935 61.4515 11.4412H58.7673ZM61.6602 17.314C61.6602 18.7137 62.7937 19.657 64.4637 19.657C67.2077 19.657 68.7884 17.8617 68.7884 15.0318V14.6667H64.9111C62.9427 14.6667 61.6602 15.7012 61.6602 17.314ZM75.0328 21.7566H77.9259V13.4495C77.9259 10.7718 79.5962 8.82434 81.9523 8.82434C84.0699 8.82434 85.4716 10.4675 85.4716 12.9018V21.7566H88.3647V12.3237C88.3647 8.67221 86.1576 6.17704 82.7575 6.17704C80.5207 6.17704 78.7311 7.21162 77.9259 9.12864V6.42047H75.0328V21.7566ZM106 21.7566H102.421L97.0225 14.4232L95.1435 16.1881V21.7566H92.2207V0H95.1435V12.5367L101.675 6.42047H105.433L99.1105 12.415L106 21.7566ZM10.2958 18.9574H0V21.766H10.2958V18.9574Z" fill="black"/>
</svg>
